<svg xmlns="http://www.w3.org/2000/svg" xmlns:xlink="http://www.w3.org/1999/xlink" viewBox="0 0 398.6 158.5">
  <defs>
    <style>
      .cls-1 {
        fill: url(#Xanh_nuoc_bien);
      }

      .cls-2 {
        fill: #fff;
      }

      .cls-3 {
        fill: #27aae1;
      }

      .cls-4 {
        fill: none;
        stroke: #f9f7f9;
        stroke-miterlimit: 10;
        stroke-width: 1.33px;
      }

      .cls-5 {
        fill: url(#Xanh_nuoc_bien-2);
      }

      .cls-6 {
        fill: url(#Xanh_nuoc_bien-3);
      }

      .cls-7 {
        fill: url(#Xanh_nuoc_bien-4);
      }
    </style>
    <linearGradient id="Xanh_nuoc_bien" data-name="Xanh nuoc bien" x1="79.26" y1="158.53" x2="79.26" gradientUnits="userSpaceOnUse">
      <stop offset="0" stop-color="#001e6a"/>
      <stop offset="1" stop-color="#55d6ff"/>
    </linearGradient>
    <linearGradient id="Xanh_nuoc_bien-2" x1="225.36" y1="106.66" x2="187.95" y2="41.88" xlink:href="#Xanh_nuoc_bien"/>
    <linearGradient id="Xanh_nuoc_bien-3" x1="302.54" y1="104.88" x2="265.17" y2="40.17" xlink:href="#Xanh_nuoc_bien"/>
    <linearGradient id="Xanh_nuoc_bien-4" x1="380.9" y1="104.36" x2="341.98" y2="36.93" xlink:href="#Xanh_nuoc_bien"/>
  </defs>
  <g id="Layer_2" data-name="Layer 2">
    <g id="Layer_1-2" data-name="Layer 1">
      <circle class="cls-1" cx="79.3" cy="79.3" r="79.3"/>
      <g>
        <path class="cls-2" d="M97.6,72.4H62.8c-8.9,0-14.9-3.7-14.9-9.2s5.6-8.8,13.9-9.1a6.1,6.1,0,0,0,5.9,4.5,6.1,6.1,0,0,0,0-12.1,6.1,6.1,0,0,0-5.9,4.6c-10.2.3-16.9,5.1-16.9,12.1s7.2,12.2,17.9,12.2H97.6c18.5,0,31.4,8.2,31.4,19.9,0,4.9-3.1,9.9-8.5,13.6s-14,6.2-22.9,6.2H38.8a6.1,6.1,0,1,0-5.8,7.6,6.1,6.1,0,0,0,5.8-4.6H97.6c21.5,0,34.4-11.6,34.4-22.8C132,81.8,117.8,72.4,97.6,72.4ZM67.7,49.6a3,3,0,0,1,3,3,3.1,3.1,0,0,1-6.1,0A3,3,0,0,1,67.7,49.6ZM33,119.7a3.1,3.1,0,0,1,0-6.1,3.1,3.1,0,0,1,0,6.1Z"/>
        <path class="cls-2" d="M60.9,86.1H95.7c8.9,0,14.9,3.7,14.9,9.2s-5.5,8.8-13.8,9.1A5.9,5.9,0,0,0,91,99.9,6.1,6.1,0,0,0,91,112a5.9,5.9,0,0,0,5.8-4.6c10.1-.3,16.8-5.1,16.8-12.1s-7.2-12.2-17.9-12.2H60.9c-18.4,0-31.3-8.2-31.3-19.9,0-9.7,11.7-19.8,31.3-19.8h58.5a5.9,5.9,0,0,0,5.8,4.5,6,6,0,0,0,0-12,5.9,5.9,0,0,0-5.8,4.5H60.9c-9.5,0-18.2,2.4-24.6,6.7s-9.7,10-9.7,16.1C26.6,76.7,40.7,86.1,60.9,86.1ZM91,109a3.1,3.1,0,1,1,3-3A3,3,0,0,1,91,109Zm34.2-70.1a3,3,0,1,1-3,3A2.9,2.9,0,0,1,125.2,38.9Z"/>
      </g>
      <g>
        <path class="cls-3" d="M171.1,131.8l.8-1.2a4.8,4.8,0,0,0,1.6.8l1.8.2a3.9,3.9,0,0,0,2-.5,2.1,2.1,0,0,0,.8-1.7,1.8,1.8,0,0,0-.7-1.5,5.1,5.1,0,0,0-2.1-1.1,9.2,9.2,0,0,1-2.7-1.5,2.9,2.9,0,0,1-.9-2.2,3.3,3.3,0,0,1,1.1-2.6,4.5,4.5,0,0,1,3.1-1,5.2,5.2,0,0,1,1.7.2l1.7.6-.6,1.2-1.4-.5-1.6-.2a2.6,2.6,0,0,0-1.8.6,1.9,1.9,0,0,0-.1,2.9,6.8,6.8,0,0,0,2.1,1,8.5,8.5,0,0,1,2.9,1.6,3.8,3.8,0,0,1-.3,5,4.9,4.9,0,0,1-3.3,1.1,7.1,7.1,0,0,1-2.1-.3A8.8,8.8,0,0,1,171.1,131.8Z"/>
        <path class="cls-3" d="M195.3,132.8h-1.5v-5.4a4,4,0,0,0-.5-2.2,1.8,1.8,0,0,0-1.6-.7,2.3,2.3,0,0,0-1.7.8,3.7,3.7,0,0,0-.6,2.1v5.4h-1.5v-5.6a2.8,2.8,0,0,0-.6-2,1.7,1.7,0,0,0-1.6-.7,1.8,1.8,0,0,0-1.6.8,3.5,3.5,0,0,0-.6,2.1v5.4H182v-9.4h1.5v1.5h0a5.1,5.1,0,0,1,1.2-1.3,3.3,3.3,0,0,1,1.7-.4,3.1,3.1,0,0,1,1.7.5,3.3,3.3,0,0,1,1,1.4,2.9,2.9,0,0,1,1.3-1.4,3.5,3.5,0,0,1,1.8-.5,2.6,2.6,0,0,1,2.3,1,4.3,4.3,0,0,1,.8,2.8Z"/>
        <path class="cls-3" d="M204.7,132.8h-1.5v-1.5h0a5.1,5.1,0,0,1-1.2,1.3,3.4,3.4,0,0,1-3.8-.4,2.9,2.9,0,0,1,0-4,4.9,4.9,0,0,1,2.3-1l2.7-.4v-.2a2.3,2.3,0,0,0-.5-1.6,2,2,0,0,0-1.5-.5l-1.4.2a3.8,3.8,0,0,0-1.3.9l-.9-.9a5.5,5.5,0,0,1,1.7-1.1,4.5,4.5,0,0,1,2-.4,3.2,3.2,0,0,1,2.5.9,3.4,3.4,0,0,1,.9,2.6Zm-1.5-3.8v-1l-2.3.4a3,3,0,0,0-1.5.5,1.4,1.4,0,0,0-.5,1.2,1.3,1.3,0,0,0,.5,1.2,1.7,1.7,0,0,0,1.2.5,2.6,2.6,0,0,0,1.9-.8A2.7,2.7,0,0,0,203.2,129Z"/>
        <path class="cls-3" d="M212.2,124.7h-.7a2.1,2.1,0,0,0-1.8,1,4.3,4.3,0,0,0-.6,2.4v4.8h-1.5v-9.4h1.5v1.9h0a2.8,2.8,0,0,1,1-1.5,2,2,0,0,1,1.5-.5h.9Z"/>
        <path class="cls-3" d="M218.5,132.7l-.7.2H217a2.1,2.1,0,0,1-1.8-.7,2.7,2.7,0,0,1-.6-1.9v-5.7H213v-1.3h1.6v-2.3l1.5-.4v2.7h2.3v1.3h-2.3v5.5a1.9,1.9,0,0,0,.3,1.2,1,1,0,0,0,.8.3h.6l.4-.2Z"/>
        <path class="cls-3" d="M235.5,131.9a7,7,0,0,1-2,.8,9.1,9.1,0,0,1-2.3.3,6.2,6.2,0,0,1-4.6-1.7,6.9,6.9,0,0,1-1.7-4.9,6.9,6.9,0,0,1,1.9-5.1,6.6,6.6,0,0,1,4.8-1.8,7.1,7.1,0,0,1,2.1.2,8.9,8.9,0,0,1,1.9.7l-.7,1.2-1.6-.6h-1.7a4.9,4.9,0,0,0-3.7,1.4,6.6,6.6,0,0,0-.1,8,4.5,4.5,0,0,0,3.5,1.3h1.5l1.2-.5v-3.7h-2.9v-1.4h4.4Z"/>
        <path class="cls-3" d="M245.9,128.4h-6.6a3.7,3.7,0,0,0,.8,2.5,3.2,3.2,0,0,0,2.3.8,2.5,2.5,0,0,0,1.2-.2,3.8,3.8,0,0,0,1.3-.6l.7,1.1-1.6.8-1.8.2a4.2,4.2,0,0,1-3.3-1.3,4.8,4.8,0,0,1-1.2-3.5,5.2,5.2,0,0,1,1.2-3.6,4.1,4.1,0,0,1,3.1-1.4,3.6,3.6,0,0,1,2.9,1.2,4.8,4.8,0,0,1,1,3.3Zm-1.5-1.2a4,4,0,0,0-.7-2,2.1,2.1,0,0,0-1.7-.7,2.4,2.4,0,0,0-1.8.7,3.4,3.4,0,0,0-.9,2Z"/>
        <path class="cls-3" d="M255.9,132.8h-1.5v-5.4a4.5,4.5,0,0,0-.5-2.2,1.9,1.9,0,0,0-1.7-.7,2.2,2.2,0,0,0-1.8.8,3.2,3.2,0,0,0-.8,2.1v5.4h-1.4v-9.4h1.4V125h.1a3.5,3.5,0,0,1,1.3-1.4,4.8,4.8,0,0,1,1.8-.4,2.6,2.6,0,0,1,2.3,1,4.8,4.8,0,0,1,.8,2.9Z"/>
        <path class="cls-3" d="M266.2,128.4h-6.6a3.8,3.8,0,0,0,.9,2.5,3.7,3.7,0,0,0,3.5.6l1.2-.6.7,1.1-1.6.8-1.7.2a4.2,4.2,0,0,1-3.3-1.3,4.8,4.8,0,0,1-1.2-3.5,5.2,5.2,0,0,1,1.2-3.6,4,4,0,0,1,3.1-1.4,3.4,3.4,0,0,1,2.8,1.2,4.8,4.8,0,0,1,1,3.3Zm-1.5-1.2a3.2,3.2,0,0,0-.6-2,2.1,2.1,0,0,0-1.7-.7,2.4,2.4,0,0,0-1.8.7,3.4,3.4,0,0,0-.9,2Z"/>
        <path class="cls-3" d="M273.1,124.7h-.6a1.9,1.9,0,0,0-1.8,1,3.6,3.6,0,0,0-.7,2.4v4.8h-1.5v-9.4H270v1.9h0a3.6,3.6,0,0,1,1-1.5,2.3,2.3,0,0,1,1.5-.5h.9Z"/>
        <path class="cls-3" d="M281.6,132.8h-1.5v-1.5h0a3,3,0,0,1-1.2,1.3,2.9,2.9,0,0,1-1.6.4,3.3,3.3,0,0,1-2.2-.8,2.9,2.9,0,0,1,0-4,5.3,5.3,0,0,1,2.4-1l2.6-.4v-.2a2.3,2.3,0,0,0-.5-1.6,2,2,0,0,0-1.5-.5l-1.4.2a5.1,5.1,0,0,0-1.3.9l-.8-.9a4.2,4.2,0,0,1,1.6-1.1,4.5,4.5,0,0,1,2-.4,3.6,3.6,0,0,1,2.6.9,3.8,3.8,0,0,1,.8,2.6Zm-1.5-3.8v-1l-2.2.4a3.4,3.4,0,0,0-1.6.5,1.4,1.4,0,0,0-.5,1.2,1.7,1.7,0,0,0,1.7,1.7,2.6,2.6,0,0,0,1.9-.8A2.7,2.7,0,0,0,280.1,129Z"/>
        <path class="cls-3" d="M289,132.7l-.8.2h-.8a2.3,2.3,0,0,1-1.8-.7,2.7,2.7,0,0,1-.6-1.9v-5.7h-1.6v-1.3H285v-2.3l1.5-.4v2.7h2.4v1.3h-2.4v5.5a1.9,1.9,0,0,0,.3,1.2,1.1,1.1,0,0,0,.8.3h.6l.4-.2Z"/>
        <path class="cls-3" d="M291.6,121.2a1.2,1.2,0,0,1-1.1-1.1.8.8,0,0,1,.4-.7.9.9,0,0,1,.7-.3,1.1,1.1,0,0,1,.8.3.9.9,0,0,1,.3.7,1,1,0,0,1-1.1,1.1Zm.8,11.6h-1.5v-9.4h1.5Z"/>
        <path class="cls-3" d="M299.3,133a4.2,4.2,0,0,1-3.3-1.3,5,5,0,0,1-1.3-3.5,5.4,5.4,0,0,1,1.3-3.7,5,5,0,0,1,3.5-1.3,4.2,4.2,0,0,1,3.3,1.3,5,5,0,0,1,1.1,3.6,5.2,5.2,0,0,1-1.2,3.6A4.9,4.9,0,0,1,299.3,133Zm.1-1.3a2.7,2.7,0,0,0,2.2-.9,5,5,0,0,0,0-5.4,2.7,2.7,0,0,0-2.2-.9,2.8,2.8,0,0,0-2.3,1,4.1,4.1,0,0,0-.8,2.7,4.2,4.2,0,0,0,.8,2.6A3,3,0,0,0,299.4,131.7Z"/>
        <path class="cls-3" d="M314.1,132.8h-1.5v-5.4a4.5,4.5,0,0,0-.5-2.2,2.1,2.1,0,0,0-1.7-.7,2.2,2.2,0,0,0-1.8.8,3.2,3.2,0,0,0-.8,2.1v5.4h-1.5v-9.4h1.5V125h.1a3.5,3.5,0,0,1,1.3-1.4,4.7,4.7,0,0,1,1.7-.4,2.8,2.8,0,0,1,2.4,1,4.8,4.8,0,0,1,.8,2.9Z"/>
        <path class="cls-3" d="M327.5,133a5.7,5.7,0,0,1-4.4-1.8,6.7,6.7,0,0,1-1.7-4.8,7.2,7.2,0,0,1,1.7-5.1,6,6,0,0,1,4.6-1.8,5.7,5.7,0,0,1,4.4,1.8,6.9,6.9,0,0,1,1.7,4.8,7.2,7.2,0,0,1-1.7,5A5.9,5.9,0,0,1,327.5,133Zm0-1.4a4.4,4.4,0,0,0,3.4-1.4,5.7,5.7,0,0,0,1.2-3.9,5.8,5.8,0,0,0-1.2-4,4.6,4.6,0,0,0-6.6,0,5.6,5.6,0,0,0-1.3,3.9,5.7,5.7,0,0,0,1.2,3.9A4.3,4.3,0,0,0,327.5,131.6Z"/>
        <path class="cls-3" d="M340.6,120.2l-.5-.2h-.4a1.2,1.2,0,0,0-1.1.4,1.6,1.6,0,0,0-.4,1.2v1.8h2.2v1.3h-2.2v8.1h-1.5v-8.1h-1.6v-1.3h1.6v-1.9a2.8,2.8,0,0,1,.8-2,3.1,3.1,0,0,1,2.2-.8h1.2Z"/>
        <path class="cls-3" d="M347.3,132.8V119.7h3.6c2.3,0,4.1.5,5.2,1.6s1.7,2.6,1.7,4.8a6.2,6.2,0,0,1-1.9,4.8,6.9,6.9,0,0,1-5.1,1.9Zm1.5-11.7v10.3h2a5.7,5.7,0,0,0,4-1.4,4.9,4.9,0,0,0,1.4-3.9,5,5,0,0,0-1.3-3.8,5.8,5.8,0,0,0-4-1.2Z"/>
        <path class="cls-3" d="M361,121.2a1,1,0,0,1-1.1-1.1.9.9,0,0,1,.3-.7,1.1,1.1,0,0,1,.8-.3.9.9,0,0,1,.7.3,1,1,0,0,1,.4.7,1.2,1.2,0,0,1-.4.8A.9.9,0,0,1,361,121.2Zm.7,11.6h-1.5v-9.4h1.5Z"/>
        <path class="cls-3" d="M372.7,132.3a5.3,5.3,0,0,1-1.2,3.7,5,5,0,0,1-3.5,1.2l-1.8-.2-1.7-.6.6-1.2a3.9,3.9,0,0,0,1.4.5l1.5.2a3.2,3.2,0,0,0,2.4-.9,3.6,3.6,0,0,0,.8-2.5v-1.3h0A4,4,0,0,1,368,133a3.3,3.3,0,0,1-2.8-1.3,4.9,4.9,0,0,1-1.1-3.3,5.5,5.5,0,0,1,1.2-3.7,3.7,3.7,0,0,1,3.1-1.5,2.7,2.7,0,0,1,1.6.4,2.5,2.5,0,0,1,1.2,1.1h0v-1.3h1.5Zm-1.5-3.8v-1.3a2.5,2.5,0,0,0-.7-1.9,2.4,2.4,0,0,0-1.9-.8,2.8,2.8,0,0,0-2.2.9,4.6,4.6,0,0,0-.8,2.9,3.6,3.6,0,0,0,.8,2.5,2.3,2.3,0,0,0,2,.9,2.5,2.5,0,0,0,2-.9A3,3,0,0,0,371.2,128.5Z"/>
        <path class="cls-3" d="M376.5,121.2a1.3,1.3,0,0,1-.8-.3,1.1,1.1,0,0,1-.3-.8.9.9,0,0,1,.3-.7,1.3,1.3,0,0,1,.8-.3,1.1,1.1,0,0,1,.8.3.9.9,0,0,1,.3.7,1,1,0,0,1-1.1,1.1Zm.7,11.6h-1.5v-9.4h1.5Z"/>
        <path class="cls-3" d="M384.7,132.7l-.7.2h-.9a2.1,2.1,0,0,1-1.7-.7,2.7,2.7,0,0,1-.6-1.9v-5.7h-1.7v-1.3h1.7v-2.3l1.5-.4v2.7h2.3v1.3h-2.3v5.5a2,2,0,0,0,.2,1.2,1.2,1.2,0,0,0,.9.3h.5l.5-.2Z"/>
        <path class="cls-3" d="M393.2,132.8h-1.5v-1.5h0a3,3,0,0,1-1.2,1.3,2.9,2.9,0,0,1-1.6.4,3.3,3.3,0,0,1-2.2-.8,2.9,2.9,0,0,1,0-4,5.3,5.3,0,0,1,2.4-1l2.6-.4v-.2a2.3,2.3,0,0,0-.5-1.6,2,2,0,0,0-1.5-.5l-1.4.2a5.1,5.1,0,0,0-1.3.9l-.8-.9a4.2,4.2,0,0,1,1.6-1.1,4.5,4.5,0,0,1,2-.4,3.6,3.6,0,0,1,2.6.9,3.8,3.8,0,0,1,.8,2.6Zm-1.5-3.8v-1l-2.2.4a3.4,3.4,0,0,0-1.6.5,1.4,1.4,0,0,0-.5,1.2,1.7,1.7,0,0,0,1.7,1.7,2.6,2.6,0,0,0,1.9-.8A2.7,2.7,0,0,0,391.7,129Z"/>
        <path class="cls-3" d="M396.1,132.8V118.9h1.5v13.9Z"/>
      </g>
      <circle class="cls-4" cx="79.6" cy="79.6" r="75.6"/>
      <path class="cls-5" d="M234.5,90.5a17.3,17.3,0,0,1-3.3,11.3c-5.7,7.7-16.8,7.7-23.8,7.7-3.6,0-17.7-.1-28.2-9.6q-10.5-9.6-10.5-25.8c0-10.9,3.9-19.9,11.7-26.9s17.8-10.5,30.1-10.5A66.3,66.3,0,0,1,228.6,39a4.8,4.8,0,0,1,3.6,4.5v.6c0,3.2-3.6,5.4-7,4.4a50,50,0,0,0-15.5-2.2c-8.3,0-15,2.5-20.3,7.5s-7.9,11.6-7.9,19.7,2.4,14.9,7.3,19.5,11.4,7.1,19.7,7.1c6,0,8.6-.2,10.4-1.4a10.6,10.6,0,0,0,2.7-3,7,7,0,0,0,1-3.8c.1-2.1.1-4.2.2-6.3a5.6,5.6,0,0,0-2-4.5,6.3,6.3,0,0,0-3.7-1.4h-6.7a4.7,4.7,0,0,1-4.8-4.7,4.9,4.9,0,0,1,5.2-4.7h10.8l1.9.2A14.7,14.7,0,0,1,230,74a12.9,12.9,0,0,1,4.4,8.5,2.8,2.8,0,0,1,.1.9Z"/>
      <path class="cls-6" d="M246.2,73.4c0-11.2,3.5-20.2,10.4-27s16.3-10.3,28.1-10.3,20,3.3,26.7,10,10,15.2,10,25.6-3.4,20-10.2,26.9-16.1,10.3-27.7,10.3-20.1-3.3-27-9.9S246.2,83.8,246.2,73.4Zm12.8-.8c0,7.7,2.2,14.1,6.6,19.1s10.4,7.6,18,7.6,14-2.4,18.4-7.2,6.6-11.2,6.6-19.3-2.1-14.9-6.3-19.8-10.3-7.2-18.2-7.2-13.7,2.5-18.3,7.5S259,64.8,259,72.6Z"/>
      <path class="cls-7" d="M333.8,95.6l.4-45c0-6,1.5-12.1,9.7-14a32.8,32.8,0,0,1,3.8-.7,32,32,0,0,1,6.3-.6h6.3c27.7,1.2,38.3,13.6,38.3,36.5,0,11-5.9,22.9-11,27.3-8,6.8-11.8,10-32.4,10h-4c-5.6-.4-6.5-.6-9.4-2C337.2,105,333.8,101.5,333.8,95.6Zm11.6-41.2L345,90.6a5.9,5.9,0,0,0,1.4,3.7,9.5,9.5,0,0,0,7.8,3.7h3.2c11.6-.4,15.2-1.9,20.5-6.6s7.9-11.1,7.9-19.5-2.5-14.5-7.5-18.7-9.5-6.2-21.9-6.5H354C346.9,46.8,345.4,51,345.4,54.4Z"/>
    </g>
  </g>
</svg>
